<svg width="22" height="22" viewBox="0 0 22 22" fill="none" xmlns="http://www.w3.org/2000/svg">
<path fill-rule="evenodd" clip-rule="evenodd" d="M10.9999 3.66667C6.94983 3.66667 3.66659 6.94991 3.66659 11C3.66659 15.0501 6.94983 18.3333 10.9999 18.3333C15.05 18.3333 18.3333 15.0501 18.3333 11C18.3333 6.94991 15.05 3.66667 10.9999 3.66667ZM1.83325 11C1.83325 5.93739 5.93731 1.83334 10.9999 1.83334C16.0625 1.83334 20.1666 5.93739 20.1666 11C20.1666 16.0626 16.0625 20.1667 10.9999 20.1667C5.93731 20.1667 1.83325 16.0626 1.83325 11ZM10.9999 6.41667C11.5062 6.41667 11.9166 6.82707 11.9166 7.33334V10.6203L14.3981 13.1018C14.7561 13.4598 14.7561 14.0402 14.3981 14.3982C14.0401 14.7562 13.4597 14.7562 13.1017 14.3982L10.3517 11.6482C10.1798 11.4763 10.0833 11.2431 10.0833 11V7.33334C10.0833 6.82707 10.4937 6.41667 10.9999 6.41667Z" fill="#002B48"/>
</svg>
